<svg width="222" height="60" viewBox="0 0 222 60" fill="none" xmlns="http://www.w3.org/2000/svg"><path d="M19.27 59.524c-7.14 0-14.04-2.595-18.329-8.123l8.653-6.143c2.456 2.975 6.002 4.142 9.364 4.142 2.814 0 5.84-.426 5.975-2.7.118-1.987-2.053-2.402-6.446-3.328 0 0-2.916-.651-3.767-.866-8.41-2.103-12.098-6.115-12.098-12.265 0-7.873 6.383-13.155 16.408-13.155 7.58 0 13.04 3.542 16.28 8.074l-8.264 5.733c-1.755-2.609-4.933-4.183-8.25-4.183-2.8 0-4.564 1.45-4.564 3.089 0 1.905 2.16 2.741 6.768 3.713.152.032 3.431.795 3.563.822 8.207 2.052 12.032 5.434 12.032 12.404.002 8.153-6.898 12.786-17.325 12.786ZM147.81 58.995h12.081v-20.78c0-5.987 2.764-9.966 9.237-9.966 1.568 0 2.996.329 4.718 1.089l3.844-10.846c-1.518-.909-3.648-1.414-5.993-1.414-5.809 0-10.199 2.763-11.999 7.336v-6.68h-11.893v41.26h.005ZM73.064 58.993h12.081V33.358c0-10.215-6.473-16.14-15.137-16.14-5.269 0-9.212 1.772-12.833 5.702V.37H45.094v58.625h12.08v-23.17c0-4.438 4.162-7.673 8.138-7.673 3.977 0 7.752 2.684 7.752 7.485v23.355ZM118.789 49.855c3.594-.19 6.239-2.624 6.239-5.957v-1.029h-6.239v-8.701h6.239v-.405c0-3.563-2.497-5.735-5.969-5.938l-.27-.003V17.234c10.651 0 18.292 7.342 18.292 17.729v24.044h-11.957l-.016-4.844c-1.397 2.307-3.442 4.315-6.319 5.194v-9.502ZM109.089 59.633c-9.968 0-16.198-5.14-16.198-12.697 0-8.25 6.093-12.764 16.655-12.764h2.37v8.699h-1.888c-3.315 0-5.58 1.066-5.58 3.468s1.615 3.51 5.58 3.518h1.905l-.003 9.765-2.841.011ZM95.477 25.39c3.747-5.355 10.694-8.156 16.459-8.156v10.58c-3.133 0-6.054 1.523-7.713 3.501l-.11.163-8.636-6.088ZM200.046 17.086c-12.491 0-21.632 9-21.632 20.947 0 12.65 8.501 21.493 22.459 21.493 7.479 0 15.443-3.498 18.973-9.366l-9.033-6.383c-2.048 3.251-5.693 5.059-9.937 5.059-5.721 0-9.179-2.758-9.805-6.892H220.8c1.584-10.785-3.79-24.858-20.754-24.858Zm-8.978 16.971c1.053-4.421 4.616-6.902 8.838-6.902 4.213 0 7.989 2.448 8.664 6.902h-17.502Z"  fill="currentColor"></path></svg>